<?xml version="1.0" encoding="UTF-8"?><svg xmlns="http://www.w3.org/2000/svg" width="582" height="62" viewBox="0 0 582 62" role="img" aria-label="Icon collection">
    <title>Icon collection</title>
    
    <style>
                @keyframes icons-wave {
                    0%, 100% { transform: translateY(0); }
                    50% { transform: translateY(-10px); }
                }
                .icon-wave {
                    animation: icons-wave 1.8s ease-in-out infinite;
                    transform-box: fill-box;
                    transform-origin: center;
                }
            </style>
    <svg viewBox="-10.2941 -10.2941 44.5884 44.5884" xmlns="http://www.w3.org/2000/svg" class="icon-wave" style="animation-delay: 0.00s;" x="11" y="11" width="40" height="40" overflow="visible" preserveAspectRatio="xMidYMid meet"><rect x="-10.2941" y="-10.2941" width="44.5884" height="44.5884" rx="15" fill="#10B981" opacity="0.1"/>
            <style>
        @keyframes popup {
            0% {
                opacity: 0;
                transform: scale(0);
            }
            100% {
                opacity: 1;
                transform: scale(1);
            }
        }
        #typescript-logo {
            animation: popup 0.6s cubic-bezier(0.68, -0.55, 0.265, 1.55) forwards;
        }
    </style>
    <g id="typescript-logo">
    <title>TypeScript</title><path fill="#10B981" d="M1.125 0C.502 0 0 .502 0 1.125v21.75C0 23.498.502 24 1.125 24h21.75c.623 0 1.125-.502 1.125-1.125V1.125C24 .502 23.498 0 22.875 0zm17.363 9.75c.612 0 1.154.037 1.627.111a6.38 6.38 0 0 1 1.306.34v2.458a3.95 3.95 0 0 0-.643-.361 5.093 5.093 0 0 0-.717-.26 5.453 5.453 0 0 0-1.426-.2c-.3 0-.573.028-.819.086a2.1 2.1 0 0 0-.623.242c-.17.104-.3.229-.393.374a.888.888 0 0 0-.14.49c0 .196.053.373.156.529.104.156.252.304.443.444s.423.276.696.41c.273.135.582.274.926.416.47.197.892.407 1.266.628.374.222.695.473.963.753.268.279.472.598.614.957.142.359.214.776.214 1.253 0 .657-.125 1.21-.373 1.656a3.033 3.033 0 0 1-1.012 1.085 4.38 4.38 0 0 1-1.487.596c-.566.12-1.163.18-1.79.18a9.916 9.916 0 0 1-1.84-.164 5.544 5.544 0 0 1-1.512-.493v-2.63a5.033 5.033 0 0 0 3.237 1.2c.333 0 .624-.03.872-.09.249-.06.456-.144.623-.25.166-.108.29-.234.373-.38a1.023 1.023 0 0 0-.074-1.089 2.12 2.12 0 0 0-.537-.5 5.597 5.597 0 0 0-.807-.444 27.72 27.72 0 0 0-1.007-.436c-.918-.383-1.602-.852-2.053-1.405-.45-.553-.676-1.222-.676-2.005 0-.614.123-1.141.369-1.582.246-.441.58-.804 1.004-1.089a4.494 4.494 0 0 1 1.47-.629 7.536 7.536 0 0 1 1.77-.201zm-15.113.188h9.563v2.166H9.506v9.646H6.789v-9.646H3.375z" />
    </g>
</svg>
    <svg viewBox="-10.2941 -10.2941 44.5884 44.5884" xmlns="http://www.w3.org/2000/svg" class="icon-wave" style="animation-delay: 0.12s;" x="63" y="11" width="40" height="40" overflow="visible" preserveAspectRatio="xMidYMid meet"><rect x="-10.2941" y="-10.2941" width="44.5884" height="44.5884" rx="15" fill="#A855F7" opacity="0.1"/>
            <style>
        @keyframes popup {
            0% {
                opacity: 0;
                transform: scale(0);
            }
            100% {
                opacity: 1;
                transform: scale(1);
            }
        }
        #javascript-logo {
            animation: popup 0.6s cubic-bezier(0.68, -0.55, 0.265, 1.55) forwards;
        }
    </style>
    <g id="javascript-logo">
    <title>JavaScript</title><path fill="#A855F7" d="M0 0h24v24H0V0zm22.034 18.276c-.175-1.095-.888-2.015-3.003-2.873-.736-.345-1.554-.585-1.797-1.14-.091-.33-.105-.51-.046-.705.15-.646.915-.84 1.515-.66.39.12.75.42.976.9 1.034-.676 1.034-.676 1.755-1.125-.27-.42-.404-.601-.586-.78-.63-.705-1.469-1.065-2.834-1.034l-.705.089c-.676.165-1.32.525-1.71 1.005-1.14 1.291-.811 3.541.569 4.471 1.365 1.02 3.361 1.244 3.616 2.205.24 1.17-.87 1.545-1.966 1.41-.811-.18-1.26-.586-1.755-1.336l-1.83 1.051c.21.48.45.689.81 1.109 1.74 1.756 6.09 1.666 6.871-1.004.029-.09.24-.705.074-1.65l.046.067zm-8.983-7.245h-2.248c0 1.938-.009 3.864-.009 5.805 0 1.232.063 2.363-.138 2.711-.33.689-1.18.601-1.566.48-.396-.196-.597-.466-.83-.855-.063-.105-.11-.196-.127-.196l-1.825 1.125c.305.63.75 1.172 1.324 1.517.855.51 2.004.675 3.207.405.783-.226 1.458-.691 1.811-1.411.51-.93.402-2.07.397-3.346.012-2.054 0-4.109 0-6.179l.004-.056z" />
    </g>
</svg>
    <svg viewBox="-10.2941 -10.2941 44.5884 44.5884" xmlns="http://www.w3.org/2000/svg" class="icon-wave" style="animation-delay: 0.24s;" x="115" y="11" width="40" height="40" overflow="visible" preserveAspectRatio="xMidYMid meet"><rect x="-10.2941" y="-10.2941" width="44.5884" height="44.5884" rx="15" fill="#38BDF8" opacity="0.1"/>
            <style>
        @keyframes popup {
            0% {
                opacity: 0;
                transform: scale(0);
            }
            100% {
                opacity: 1;
                transform: scale(1);
            }
        }
        #nodedotjs-logo {
            animation: popup 0.6s cubic-bezier(0.68, -0.55, 0.265, 1.55) forwards;
        }
    </style>
    <g id="nodedotjs-logo">
    <title>Node.js</title><path fill="#38BDF8" d="M11.998,24c-0.321,0-0.641-0.084-0.922-0.247l-2.936-1.737c-0.438-0.245-0.224-0.332-0.08-0.383 c0.585-0.203,0.703-0.25,1.328-0.604c0.065-0.037,0.151-0.023,0.218,0.017l2.256,1.339c0.082,0.045,0.197,0.045,0.272,0l8.795-5.076 c0.082-0.047,0.134-0.141,0.134-0.238V6.921c0-0.099-0.053-0.192-0.137-0.242l-8.791-5.072c-0.081-0.047-0.189-0.047-0.271,0 L3.075,6.68C2.99,6.729,2.936,6.825,2.936,6.921v10.15c0,0.097,0.054,0.189,0.139,0.235l2.409,1.392 c1.307,0.654,2.108-0.116,2.108-0.89V7.787c0-0.142,0.114-0.253,0.256-0.253h1.115c0.139,0,0.255,0.112,0.255,0.253v10.021 c0,1.745-0.95,2.745-2.604,2.745c-0.508,0-0.909,0-2.026-0.551L2.28,18.675c-0.57-0.329-0.922-0.945-0.922-1.604V6.921 c0-0.659,0.353-1.275,0.922-1.603l8.795-5.082c0.557-0.315,1.296-0.315,1.848,0l8.794,5.082c0.57,0.329,0.924,0.944,0.924,1.603 v10.15c0,0.659-0.354,1.273-0.924,1.604l-8.794,5.078C12.643,23.916,12.324,24,11.998,24z M19.099,13.993 c0-1.9-1.284-2.406-3.987-2.763c-2.731-0.361-3.009-0.548-3.009-1.187c0-0.528,0.235-1.233,2.258-1.233 c1.807,0,2.473,0.389,2.747,1.607c0.024,0.115,0.129,0.199,0.247,0.199h1.141c0.071,0,0.138-0.031,0.186-0.081 c0.048-0.054,0.074-0.123,0.067-0.196c-0.177-2.098-1.571-3.076-4.388-3.076c-2.508,0-4.004,1.058-4.004,2.833 c0,1.925,1.488,2.457,3.895,2.695c2.88,0.282,3.103,0.703,3.103,1.269c0,0.983-0.789,1.402-2.642,1.402 c-2.327,0-2.839-0.584-3.011-1.742c-0.02-0.124-0.126-0.215-0.253-0.215h-1.137c-0.141,0-0.254,0.112-0.254,0.253 c0,1.482,0.806,3.248,4.655,3.248C17.501,17.007,19.099,15.91,19.099,13.993z" />
    </g>
</svg>
    <svg viewBox="-10 -10 44 44" xmlns="http://www.w3.org/2000/svg" class="icon-wave" style="animation-delay: 0.36s;" x="167" y="11" width="40" height="40" overflow="visible" preserveAspectRatio="xMidYMid meet"><rect x="-10.2941" y="-10.2941" width="44.5884" height="44.5884" rx="15" fill="#EAB308" opacity="0.1"/>
            <style>
        @keyframes popup {
            0% {
                opacity: 0;
                transform: scale(0);
            }
            100% {
                opacity: 1;
                transform: scale(1);
            }
        }
        #nextjs-logo {
            animation: popup 0.6s cubic-bezier(0.68, -0.55, 0.265, 1.55) forwards;
        }
    </style>
    <g id="nextjs-logo">
    <title>Next.js</title><path fill="#EAB308" d="M18.665 21.978C16.758 23.255 14.465 24 12 24 5.377 24 0 18.623 0 12S5.377 0 12 0s12 5.377 12 12c0 3.583-1.574 6.801-4.067 9.001L9.219 7.2H7.2v9.596h1.615V9.251l9.85 12.727Zm-3.332-8.533 1.6 2.061V7.2h-1.6v6.245Z" />
    </g>
</svg>
    <svg viewBox="-10.2941 -10.2941 44.5884 44.5884" xmlns="http://www.w3.org/2000/svg" class="icon-wave" style="animation-delay: 0.48s;" x="219" y="11" width="40" height="40" overflow="visible" preserveAspectRatio="xMidYMid meet"><rect x="-10.2941" y="-10.2941" width="44.5884" height="44.5884" rx="15" fill="#A855F7" opacity="0.1"/>
            <style>
        @keyframes popup {
            0% {
                opacity: 0;
                transform: scale(0);
            }
            100% {
                opacity: 1;
                transform: scale(1);
            }
        }
        #nuxt-logo {
            animation: popup 0.6s cubic-bezier(0.68, -0.55, 0.265, 1.55) forwards;
        }
    </style>
    <g id="nuxt-logo">
    <title>Nuxt</title><path fill="#A855F7" d="M13.4642 19.8295h8.9218c.2834 0 .5618-.0723.8072-.2098a1.5899 1.5899 0 0 0 .5908-.5732 1.5293 1.5293 0 0 0 .216-.783 1.529 1.529 0 0 0-.2167-.7828L17.7916 7.4142a1.5904 1.5904 0 0 0-.5907-.573 1.6524 1.6524 0 0 0-.807-.2099c-.2833 0-.5616.0724-.807.2098a1.5904 1.5904 0 0 0-.5907.5731L13.4642 9.99l-2.9954-5.0366a1.5913 1.5913 0 0 0-.591-.573 1.6533 1.6533 0 0 0-.8071-.2098c-.2834 0-.5617.0723-.8072.2097a1.5913 1.5913 0 0 0-.591.573L.2168 17.4808A1.5292 1.5292 0 0 0 0 18.2635c-.0001.2749.0744.545.216.783a1.59 1.59 0 0 0 .5908.5732c.2454.1375.5238.2098.8072.2098h5.6003c2.219 0 3.8554-.9454 4.9813-2.7899l2.7337-4.5922L16.3935 9.99l4.3944 7.382h-5.8586ZM7.123 17.3694l-3.9083-.0009 5.8586-9.8421 2.9232 4.921-1.9572 3.2892c-.7478 1.1967-1.5972 1.6328-2.9163 1.6328z" />
    </g>
</svg>
    <svg viewBox="-10.2941 -10.2941 44.5884 44.5884" xmlns="http://www.w3.org/2000/svg" class="icon-wave" style="animation-delay: 0.60s;" x="271" y="11" width="40" height="40" overflow="visible" preserveAspectRatio="xMidYMid meet"><rect x="-10.2941" y="-10.2941" width="44.5884" height="44.5884" rx="15" fill="#14B8A6" opacity="0.1"/>
            <style>
        @keyframes popup {
            0% {
                opacity: 0;
                transform: scale(0);
            }
            100% {
                opacity: 1;
                transform: scale(1);
            }
        }
        #shadcnui-logo {
            animation: popup 0.6s cubic-bezier(0.68, -0.55, 0.265, 1.55) forwards;
        }
    </style>
    <g id="shadcnui-logo">
    <title>shadcn/ui</title><path fill="#14B8A6" d="M22.219 11.784 11.784 22.219c-.407.407-.407 1.068 0 1.476.407.407 1.068.407 1.476 0L23.695 13.26c.407-.408.407-1.069 0-1.476-.408-.407-1.069-.407-1.476 0ZM20.132.305.305 20.132c-.407.407-.407 1.068 0 1.476.408.407 1.069.407 1.476 0L21.608 1.781c.407-.407.407-1.068 0-1.476-.408-.407-1.069-.407-1.476 0Z" />
    </g>
</svg>
    <svg viewBox="-10.2941 -10.2941 44.5884 44.5884" xmlns="http://www.w3.org/2000/svg" class="icon-wave" style="animation-delay: 0.72s;" x="323" y="11" width="40" height="40" overflow="visible" preserveAspectRatio="xMidYMid meet"><rect x="-10.2941" y="-10.2941" width="44.5884" height="44.5884" rx="15" fill="#10B981" opacity="0.1"/>
            <style>
        @keyframes popup {
            0% {
                opacity: 0;
                transform: scale(0);
            }
            100% {
                opacity: 1;
                transform: scale(1);
            }
        }
        #postgresql-logo {
            animation: popup 0.6s cubic-bezier(0.68, -0.55, 0.265, 1.55) forwards;
        }
    </style>
    <g id="postgresql-logo">
    <title>PostgreSQL</title><path fill="#10B981" d="M23.5594 14.7228a.5269.5269 0 0 0-.0563-.1191c-.139-.2632-.4768-.3418-1.0074-.2321-1.6533.3411-2.2935.1312-2.5256-.0191 1.342-2.0482 2.445-4.522 3.0411-6.8297.2714-1.0507.7982-3.5237.1222-4.7316a1.5641 1.5641 0 0 0-.1509-.235C21.6931.9086 19.8007.0248 17.5099.0005c-1.4947-.0158-2.7705.3461-3.1161.4794a9.449 9.449 0 0 0-.5159-.0816 8.044 8.044 0 0 0-1.3114-.1278c-1.1822-.0184-2.2038.2642-3.0498.8406-.8573-.3211-4.7888-1.645-7.2219.0788C.9359 2.1526.3086 3.8733.4302 6.3043c.0409.818.5069 3.334 1.2423 5.7436.4598 1.5065.9387 2.7019 1.4334 3.582.553.9942 1.1259 1.5933 1.7143 1.7895.4474.1491 1.1327.1441 1.8581-.7279.8012-.9635 1.5903-1.8258 1.9446-2.2069.4351.2355.9064.3625 1.39.3772a.0569.0569 0 0 0 .0004.0041 11.0312 11.0312 0 0 0-.2472.3054c-.3389.4302-.4094.5197-1.5002.7443-.3102.064-1.1344.2339-1.1464.8115-.0025.1224.0329.2309.0919.3268.2269.4231.9216.6097 1.015.6331 1.3345.3335 2.5044.092 3.3714-.6787-.017 2.231.0775 4.4174.3454 5.0874.2212.5529.7618 1.9045 2.4692 1.9043.2505 0 .5263-.0291.8296-.0941 1.7819-.3821 2.5557-1.1696 2.855-2.9059.1503-.8707.4016-2.8753.5388-4.1012.0169-.0703.0357-.1207.057-.1362.0007-.0005.0697-.0471.4272.0307a.3673.3673 0 0 0 .0443.0068l.2539.0223.0149.001c.8468.0384 1.9114-.1426 2.5312-.4308.6438-.2988 1.8057-1.0323 1.5951-1.6698zM2.371 11.8765c-.7435-2.4358-1.1779-4.8851-1.2123-5.5719-.1086-2.1714.4171-3.6829 1.5623-4.4927 1.8367-1.2986 4.8398-.5408 6.108-.13-.0032.0032-.0066.0061-.0098.0094-2.0238 2.044-1.9758 5.536-1.9708 5.7495-.0002.0823.0066.1989.0162.3593.0348.5873.0996 1.6804-.0735 2.9184-.1609 1.1504.1937 2.2764.9728 3.0892.0806.0841.1648.1631.2518.2374-.3468.3714-1.1004 1.1926-1.9025 2.1576-.5677.6825-.9597.5517-1.0886.5087-.3919-.1307-.813-.5871-1.2381-1.3223-.4796-.839-.9635-2.0317-1.4155-3.5126zm6.0072 5.0871c-.1711-.0428-.3271-.1132-.4322-.1772.0889-.0394.2374-.0902.4833-.1409 1.2833-.2641 1.4815-.4506 1.9143-1.0002.0992-.126.2116-.2687.3673-.4426a.3549.3549 0 0 0 .0737-.1298c.1708-.1513.2724-.1099.4369-.0417.156.0646.3078.26.3695.4752.0291.1016.0619.2945-.0452.4444-.9043 1.2658-2.2216 1.2494-3.1676 1.0128zm2.094-3.988-.0525.141c-.133.3566-.2567.6881-.3334 1.003-.6674-.0021-1.3168-.2872-1.8105-.8024-.6279-.6551-.9131-1.5664-.7825-2.5004.1828-1.3079.1153-2.4468.079-3.0586-.005-.0857-.0095-.1607-.0122-.2199.2957-.2621 1.6659-.9962 2.6429-.7724.4459.1022.7176.4057.8305.928.5846 2.7038.0774 3.8307-.3302 4.7363-.084.1866-.1633.3629-.2311.5454zm7.3637 4.5725c-.0169.1768-.0358.376-.0618.5959l-.146.4383a.3547.3547 0 0 0-.0182.1077c-.0059.4747-.054.6489-.115.8693-.0634.2292-.1353.4891-.1794 1.0575-.11 1.4143-.8782 2.2267-2.4172 2.5565-1.5155.3251-1.7843-.4968-2.0212-1.2217a6.5824 6.5824 0 0 0-.0769-.2266c-.2154-.5858-.1911-1.4119-.1574-2.5551.0165-.5612-.0249-1.9013-.3302-2.6462.0044-.2932.0106-.5909.019-.8918a.3529.3529 0 0 0-.0153-.1126 1.4927 1.4927 0 0 0-.0439-.208c-.1226-.4283-.4213-.7866-.7797-.9351-.1424-.059-.4038-.1672-.7178-.0869.067-.276.1831-.5875.309-.9249l.0529-.142c.0595-.16.134-.3257.213-.5012.4265-.9476 1.0106-2.2453.3766-5.1772-.2374-1.0981-1.0304-1.6343-2.2324-1.5098-.7207.0746-1.3799.3654-1.7088.5321a5.6716 5.6716 0 0 0-.1958.1041c.0918-1.1064.4386-3.1741 1.7357-4.4823a4.0306 4.0306 0 0 1 .3033-.276.3532.3532 0 0 0 .1447-.0644c.7524-.5706 1.6945-.8506 2.802-.8325.4091.0067.8017.0339 1.1742.081 1.939.3544 3.2439 1.4468 4.0359 2.3827.8143.9623 1.2552 1.9315 1.4312 2.4543-1.3232-.1346-2.2234.1268-2.6797.779-.9926 1.4189.543 4.1729 1.2811 5.4964.1353.2426.2522.4522.2889.5413.2403.5825.5515.9713.7787 1.2552.0696.087.1372.1714.1885.245-.4008.1155-1.1208.3825-1.0552 1.717-.0123.1563-.0423.4469-.0834.8148-.0461.2077-.0702.4603-.0994.7662zm.8905-1.6211c-.0405-.8316.2691-.9185.5967-1.0105a2.8566 2.8566 0 0 0 .135-.0406 1.202 1.202 0 0 0 .1342.103c.5703.3765 1.5823.4213 3.0068.1344-.2016.1769-.5189.3994-.9533.6011-.4098.1903-1.0957.333-1.7473.3636-.7197.0336-1.0859-.0807-1.1721-.151zm.5695-9.2712c-.0059.3508-.0542.6692-.1054 1.0017-.055.3576-.112.7274-.1264 1.1762-.0142.4368.0404.8909.0932 1.3301.1066.887.216 1.8003-.2075 2.7014a3.5272 3.5272 0 0 1-.1876-.3856c-.0527-.1276-.1669-.3326-.3251-.6162-.6156-1.1041-2.0574-3.6896-1.3193-4.7446.3795-.5427 1.3408-.5661 2.1781-.463zm.2284 7.0137a12.3762 12.3762 0 0 0-.0853-.1074l-.0355-.0444c.7262-1.1995.5842-2.3862.4578-3.4385-.0519-.4318-.1009-.8396-.0885-1.2226.0129-.4061.0666-.7543.1185-1.0911.0639-.415.1288-.8443.1109-1.3505.0134-.0531.0188-.1158.0118-.1902-.0457-.4855-.5999-1.938-1.7294-3.253-.6076-.7073-1.4896-1.4972-2.6889-2.0395.5251-.1066 1.2328-.2035 2.0244-.1859 2.0515.0456 3.6746.8135 4.8242 2.2824a.908.908 0 0 1 .0667.1002c.7231 1.3556-.2762 6.2751-2.9867 10.5405zm-8.8166-6.1162c-.025.1794-.3089.4225-.6211.4225a.5821.5821 0 0 1-.0809-.0056c-.1873-.026-.3765-.144-.5059-.3156-.0458-.0605-.1203-.178-.1055-.2844.0055-.0401.0261-.0985.0925-.1488.1182-.0894.3518-.1226.6096-.0867.3163.0441.6426.1938.6113.4186zm7.9305-.4114c.0111.0792-.049.201-.1531.3102-.0683.0717-.212.1961-.4079.2232a.5456.5456 0 0 1-.075.0052c-.2935 0-.5414-.2344-.5607-.3717-.024-.1765.2641-.3106.5611-.352.297-.0414.6111.0088.6356.1851z" />
    </g>
</svg>
    <svg viewBox="-10.2941 -10.2941 44.5884 44.5884" xmlns="http://www.w3.org/2000/svg" class="icon-wave" style="animation-delay: 0.84s;" x="375" y="11" width="40" height="40" overflow="visible" preserveAspectRatio="xMidYMid meet"><rect x="-10.2941" y="-10.2941" width="44.5884" height="44.5884" rx="15" fill="#38BDF8" opacity="0.1"/>
            <style>
        @keyframes popup {
            0% {
                opacity: 0;
                transform: scale(0);
            }
            100% {
                opacity: 1;
                transform: scale(1);
            }
        }
        #drizzle-logo {
            animation: popup 0.6s cubic-bezier(0.68, -0.55, 0.265, 1.55) forwards;
        }
    </style>
    <g id="drizzle-logo">
    <title>Drizzle</title><path fill="#38BDF8" d="M5.353 11.823a1.036 1.036 0 0 0-.395-1.422 1.063 1.063 0 0 0-1.437.399L.138 16.702a1.035 1.035 0 0 0 .395 1.422 1.063 1.063 0 0 0 1.437-.398l3.383-5.903Zm11.216 0a1.036 1.036 0 0 0-.394-1.422 1.064 1.064 0 0 0-1.438.399l-3.382 5.902a1.036 1.036 0 0 0 .394 1.422c.506.283 1.15.104 1.438-.398l3.382-5.903Zm7.293-4.525a1.036 1.036 0 0 0-.395-1.422 1.062 1.062 0 0 0-1.437.399l-3.383 5.902a1.036 1.036 0 0 0 .395 1.422 1.063 1.063 0 0 0 1.437-.399l3.383-5.902Zm-11.219 0a1.035 1.035 0 0 0-.394-1.422 1.064 1.064 0 0 0-1.438.398l-3.382 5.903a1.036 1.036 0 0 0 .394 1.422c.506.282 1.15.104 1.438-.399l3.382-5.902Z" />
    </g>
</svg>
    <svg viewBox="-8 -8 40 40" xmlns="http://www.w3.org/2000/svg" class="icon-wave" style="animation-delay: 0.96s;" x="427" y="11" width="40" height="40" overflow="visible" preserveAspectRatio="xMidYMid meet"><rect x="-10.2941" y="-10.2941" width="44.5884" height="44.5884" rx="15" fill="#EAB308" opacity="0.1"/>
            <style>
        @keyframes popup {
            0% {
                opacity: 0;
                transform: scale(0);
            }
            100% {
                opacity: 1;
                transform: scale(1);
            }
        }
        #tailwindcss-logo {
            animation: popup 0.6s cubic-bezier(0.68, -0.55, 0.265, 1.55) forwards;
        }
    </style>
    <g id="tailwindcss-logo">
    <title>Tailwind CSS</title><path fill="#EAB308" d="M12.001,4.8c-3.2,0-5.2,1.6-6,4.8c1.2-1.6,2.6-2.2,4.2-1.8c0.913,0.228,1.565,0.89,2.288,1.624 C13.666,10.618,15.027,12,18.001,12c3.2,0,5.2-1.6,6-4.8c-1.2,1.6-2.6,2.2-4.2,1.8c-0.913-0.228-1.565-0.89-2.288-1.624 C16.337,6.182,14.976,4.8,12.001,4.8z M6.001,12c-3.2,0-5.2,1.6-6,4.8c1.2-1.6,2.6-2.2,4.2-1.8c0.913,0.228,1.565,0.89,2.288,1.624 c1.177,1.194,2.538,2.576,5.512,2.576c3.2,0,5.2-1.6,6-4.8c-1.2,1.6-2.6,2.2-4.2,1.8c-0.913-0.228-1.565-0.89-2.288-1.624 C10.337,13.382,8.976,12,6.001,12z" />
    </g>
</svg>
    <svg viewBox="-10.2941 -10.2941 44.5884 44.5884" xmlns="http://www.w3.org/2000/svg" class="icon-wave" style="animation-delay: 1.08s;" x="479" y="11" width="40" height="40" overflow="visible" preserveAspectRatio="xMidYMid meet"><rect x="-10.2941" y="-10.2941" width="44.5884" height="44.5884" rx="15" fill="#3B82F6" opacity="0.1"/>
            <style>
        @keyframes popup {
            0% {
                opacity: 0;
                transform: scale(0);
            }
            100% {
                opacity: 1;
                transform: scale(1);
            }
        }
        #laravel-logo {
            animation: popup 0.6s cubic-bezier(0.68, -0.55, 0.265, 1.55) forwards;
        }
    </style>
    <g id="laravel-logo">
    <title>Laravel</title><path fill="#3B82F6" d="M23.642 5.43a.364.364 0 01.014.1v5.149c0 .135-.073.26-.189.326l-4.323 2.49v4.934a.378.378 0 01-.188.326L9.93 23.949a.316.316 0 01-.066.027c-.008.002-.016.008-.024.01a.348.348 0 01-.192 0c-.011-.002-.02-.008-.03-.012-.02-.008-.042-.014-.062-.025L.533 18.755a.376.376 0 01-.189-.326V2.974c0-.033.005-.066.014-.098.003-.012.01-.02.014-.032a.369.369 0 01.023-.058c.004-.013.015-.022.023-.033l.033-.045c.012-.01.025-.018.037-.027.014-.012.027-.024.041-.034H.53L5.043.05a.375.375 0 01.375 0L9.93 2.647h.002c.015.01.027.021.04.033l.038.027c.013.014.02.03.033.045.008.011.02.021.025.033.01.02.017.038.024.058.003.011.01.021.013.032.01.031.014.064.014.098v9.652l3.76-2.164V5.527c0-.033.004-.066.013-.098.003-.01.01-.02.013-.032a.487.487 0 01.024-.059c.007-.012.018-.02.025-.033.012-.015.021-.03.033-.043.012-.012.025-.02.037-.028.014-.01.026-.023.041-.032h.001l4.513-2.598a.375.375 0 01.375 0l4.513 2.598c.016.01.027.021.042.031.012.01.025.018.036.028.013.014.022.03.034.044.008.012.019.021.024.033.011.02.018.04.024.06.006.01.012.021.015.032zm-.74 5.032V6.179l-1.578.908-2.182 1.256v4.283zm-4.51 7.75v-4.287l-2.147 1.225-6.126 3.498v4.325zM1.093 3.624v14.588l8.273 4.761v-4.325l-4.322-2.445-.002-.003H5.04c-.014-.01-.025-.021-.04-.031-.011-.01-.024-.018-.035-.027l-.001-.002c-.013-.012-.021-.025-.031-.04-.01-.011-.021-.022-.028-.036h-.002c-.008-.014-.013-.031-.02-.047-.006-.016-.014-.027-.018-.043a.49.49 0 01-.008-.057c-.002-.014-.006-.027-.006-.041V5.789l-2.18-1.257zM5.23.81L1.47 2.974l3.76 2.164 3.758-2.164zm1.956 13.505l2.182-1.256V3.624l-1.58.91-2.182 1.255v9.435zm11.581-10.95l-3.76 2.163 3.76 2.163 3.759-2.164zm-.376 4.978L16.21 7.087 14.63 6.18v4.283l2.182 1.256 1.58.908zm-8.65 9.654l5.514-3.148 2.756-1.572-3.757-2.163-4.323 2.489-3.941 2.27z" />
    </g>
</svg>
    <svg viewBox="0 0 48 48" xmlns="http://www.w3.org/2000/svg" class="icon-wave" style="animation-delay: 1.20s;" x="531" y="11" width="40" height="40" overflow="visible" preserveAspectRatio="xMidYMid meet">
    <path opacity="0.1"
            d="M31.8523 0H16.1477C7.22957 0 0 7.22957 0 16.1477V31.8523C0 40.7704 7.22957 48 16.1477 48H31.8523C40.7704 48 48 40.7704 48 31.8523V16.1477C48 7.22957 40.7704 0 31.8523 0Z"
            fill="#F97316" />
    <style>
        @keyframes popup {
            0% {
                opacity: 0;
                transform: scale(0);
            }
            100% {
                opacity: 1;
                transform: scale(1);
            }
        }
        #csharp-logo {
            animation: popup 0.6s cubic-bezier(0.68, -0.55, 0.265, 1.55) forwards;
        }
    </style>
    <g id="csharp-logo">
        <path
        d="M36.9975 17.5908C36.9973 17.0995 36.8922 16.6653 36.6797 16.2927C36.471 15.9263 36.1584 15.6192 35.7391 15.3764C32.2779 13.3807 28.8134 11.3911 25.3534 9.3933C24.4206 8.85478 23.5161 8.87441 22.5902 9.42067C21.2126 10.2331 14.3152 14.1848 12.2599 15.3753C11.4134 15.8653 11.0015 16.6152 11.0013 17.5899C11 21.6034 11.0013 25.6168 11 29.6304C11 30.1109 11.1008 30.5366 11.304 30.9037C11.5128 31.2812 11.8298 31.5967 12.2587 31.845C14.3142 33.0355 21.2125 36.9868 22.5898 37.7995C23.5161 38.3461 24.4206 38.3656 25.3537 37.8269C28.8138 35.829 32.2785 33.8395 35.7402 31.8438C36.1692 31.5956 36.4862 31.2798 36.695 30.9026C36.8978 30.5356 36.9989 30.1099 36.9989 29.6293C36.9989 29.6293 36.9989 21.6044 36.9975 17.5908Z"
        fill="#F97316" />
        <path
        d="M24.0399 23.5713L11.3047 30.9039C11.5135 31.2814 11.8305 31.597 12.2595 31.8453C14.3149 33.0357 21.2132 36.9871 22.5906 37.7998C23.5169 38.3463 24.4213 38.3659 25.3544 37.8271C28.8146 35.8293 32.2793 33.8398 35.741 31.8441C36.1699 31.5959 36.4869 31.2801 36.6957 30.9029L24.0399 23.5713Z"
        fill="#F97316" />
        <path
        d="M36.9974 17.5911C36.9972 17.0997 36.8921 16.6656 36.6796 16.293L24.0391 23.5713L36.6949 30.9029C36.8977 30.5359 36.9985 30.1102 36.9987 29.6295C36.9987 29.6295 36.9987 21.6047 36.9974 17.5911Z"
        fill="#F97316" />
        <path
        d="M31.5364 20.8311V22.2016H32.907V20.8311H33.5923V22.2016H34.9629V22.8869H33.5923V24.2575H34.9629V24.9428H33.5923V26.3134H32.907V24.9428H31.5364V26.3134H30.8511V24.9428H29.4805V24.2575H30.8511V22.8869H29.4805V22.2016H30.8511V20.8311H31.5364ZM32.907 22.8869H31.5364V24.2575H32.907V22.8869Z"
        fill="white" data-foreground="true"/>
        <path
        d="M24.0701 13.9473C27.6451 13.9473 30.7663 15.8888 32.4381 18.7747L32.4218 18.7469L28.2156 21.1688C27.3869 19.7656 25.8677 18.8187 24.125 18.7992L24.0701 18.7989C21.4125 18.7989 19.2579 20.9534 19.2579 23.6109C19.2579 24.48 19.4896 25.2947 19.8926 25.9983C20.7221 27.4464 22.2814 28.4231 24.0701 28.4231C25.8699 28.4231 27.4381 27.434 28.2633 25.9704L28.2433 26.0056L32.4431 28.4386C30.7896 31.3 27.7112 33.2356 24.1777 33.2742L24.0701 33.2747C20.4839 33.2747 17.3537 31.3213 15.6861 28.4201C14.8721 27.0038 14.4062 25.3619 14.4062 23.6109C14.4062 18.2739 18.7328 13.9473 24.0701 13.9473Z"
        fill="white" data-foreground="true"/>
    </g>
</svg></svg>